<?xml version="1.0" encoding="UTF-8"?>
<!DOCTYPE svg PUBLIC "-//W3C//DTD SVG 1.1//EN" "http://www.w3.org/Graphics/SVG/1.1/DTD/svg11.dtd">
<svg xmlns="http://www.w3.org/2000/svg" version="1.1" width="756px" height="768px" style="shape-rendering:geometricPrecision; text-rendering:geometricPrecision; image-rendering:optimizeQuality; fill-rule:evenodd; clip-rule:evenodd" xmlns:xlink="http://www.w3.org/1999/xlink">
<g><path style="opacity:0.754" fill="#fefffe" d="M 361.5,136.5 C 363.527,136.338 365.527,136.505 367.5,137C 368.833,139.333 370.167,141.667 371.5,144C 381.828,144.5 392.161,144.666 402.5,144.5C 402.002,149.152 401.669,153.819 401.5,158.5C 398.167,158.5 394.833,158.5 391.5,158.5C 391.5,155.833 391.5,153.167 391.5,150.5C 372.402,149.987 353.402,150.987 334.5,153.5C 335.008,156.176 335.175,158.843 335,161.5C 332.667,162.167 330.333,162.833 328,163.5C 326.33,159.012 325.163,154.345 324.5,149.5C 324.833,149.167 325.167,148.833 325.5,148.5C 336.094,146.874 346.761,145.707 357.5,145C 358.167,144.667 358.833,144.333 359.5,144C 358.373,142.247 357.373,140.413 356.5,138.5C 358.291,137.83 359.958,137.163 361.5,136.5 Z"/></g>
<g><path style="opacity:0.768" fill="#fefffe" d="M 443.5,165.5 C 441.69,168.145 440.69,171.145 440.5,174.5C 442.604,174.201 444.604,174.534 446.5,175.5C 443.966,183.934 441.133,192.267 438,200.5C 437.167,201.333 436.333,202.167 435.5,203C 430.845,203.499 426.179,203.666 421.5,203.5C 421.326,201.139 420.993,198.806 420.5,196.5C 422.848,196.67 425.182,197.003 427.5,197.5C 429.374,197.61 430.874,196.944 432,195.5C 433.815,190.237 435.315,184.903 436.5,179.5C 430.176,178.751 423.843,178.085 417.5,177.5C 419.091,169.21 420.425,160.876 421.5,152.5C 425.102,152.75 428.435,153.75 431.5,155.5C 428.592,160.447 426.592,165.781 425.5,171.5C 428.034,172.777 430.534,172.777 433,171.5C 434.866,164.735 437.033,158.068 439.5,151.5C 432.592,149.909 425.592,148.909 418.5,148.5C 418.5,146.167 418.5,143.833 418.5,141.5C 428.783,143.207 439.117,144.54 449.5,145.5C 447.5,152.167 445.5,158.833 443.5,165.5 Z"/></g>
<g><path style="opacity:0.729" fill="#fefffe" d="M 443.5,165.5 C 454.748,161.76 463.915,155.093 471,145.5C 474.391,147.732 477.891,149.732 481.5,151.5C 480.833,152.167 480.167,152.833 479.5,153.5C 483.272,162.935 489.272,170.602 497.5,176.5C 495.013,177.576 492.68,178.91 490.5,180.5C 487.567,179.07 485.067,177.07 483,174.5C 482.417,176.002 481.584,177.335 480.5,178.5C 472.804,175.243 464.804,173.243 456.5,172.5C 456.762,171.022 456.429,169.689 455.5,168.5C 453.705,169.265 451.872,169.932 450,170.5C 447.659,168.984 445.492,167.317 443.5,165.5 Z M 473.5,155.5 C 474.909,161.534 477.576,167.034 481.5,172C 474.252,171.03 467.252,169.03 460.5,166C 465.269,162.96 469.603,159.46 473.5,155.5 Z"/></g>
<g><path style="opacity:0.769" fill="#fefffe" d="M 303.5,148.5 C 305.04,150.838 305.706,153.505 305.5,156.5C 285.474,160.008 266.141,165.842 247.5,174C 253.187,187.876 259.02,201.709 265,215.5C 281.3,208.844 297.967,203.178 315,198.5C 315.945,198.905 316.612,199.572 317,200.5C 317.495,202.473 317.662,204.473 317.5,206.5C 297.503,209.277 278.503,215.277 260.5,224.5C 259.201,223.91 258.368,222.91 258,221.5C 250.815,204.468 243.648,187.468 236.5,170.5C 258.646,162.34 280.98,155.006 303.5,148.5 Z"/></g>
<g><path style="opacity:0.75" fill="#fefffe" d="M 364.5,153.5 C 368.226,153.177 371.893,153.511 375.5,154.5C 373.984,161.274 372.984,168.107 372.5,175C 382.519,174.639 392.519,174.805 402.5,175.5C 402.326,177.861 401.993,180.194 401.5,182.5C 391.166,181.361 380.833,181.361 370.5,182.5C 368.078,187.756 364.411,191.922 359.5,195C 353.27,199.282 346.604,202.782 339.5,205.5C 336.72,203.897 334.054,202.063 331.5,200C 339.041,197.232 346.374,193.898 353.5,190C 356.833,188 359.5,185.333 361.5,182C 350.749,182.417 340.082,183.917 329.5,186.5C 327.946,184.067 327.28,181.4 327.5,178.5C 334.303,178.504 340.969,177.671 347.5,176C 343.312,173.938 338.979,172.271 334.5,171C 336.35,168.982 338.35,167.149 340.5,165.5C 345.669,167.111 350.669,169.111 355.5,171.5C 354.252,173.459 352.585,174.959 350.5,176C 355.174,176.333 359.84,176.167 364.5,175.5C 365.74,168.179 365.74,160.846 364.5,153.5 Z"/></g>
<g><path style="opacity:0.672" fill="#fefffe" d="M 345.5,155.5 C 351.375,156.775 356.708,159.108 361.5,162.5C 360.167,164.5 358.5,166.167 356.5,167.5C 351.612,164.889 346.612,162.555 341.5,160.5C 342.857,158.814 344.19,157.148 345.5,155.5 Z"/></g>
<g><path style="opacity:0.778" fill="#fefffe" d="M 288.5,161.5 C 292.667,161.849 296.667,162.682 300.5,164C 296.046,169.128 292.379,174.795 289.5,181C 296.626,183.398 303.293,186.565 309.5,190.5C 308.239,193.264 306.405,195.597 304,197.5C 298.527,193.847 292.694,190.847 286.5,188.5C 282.264,194.628 278.264,200.962 274.5,207.5C 271.264,208.941 268.264,208.608 265.5,206.5C 270.458,200.089 274.791,193.256 278.5,186C 271.349,183.379 264.015,181.379 256.5,180C 257.573,177.343 259.24,175.177 261.5,173.5C 268.461,175.493 275.461,176.993 282.5,178C 285.391,172.826 287.391,167.326 288.5,161.5 Z"/></g>
<g><path style="opacity:0.766" fill="#fefffe" d="M 512.5,168.5 C 523.386,172.942 534.053,177.942 544.5,183.5C 545.086,183.291 545.586,182.957 546,182.5C 546.333,180.167 546.667,177.833 547,175.5C 549.761,176.796 552.595,177.963 555.5,179C 555.867,182.407 556.033,185.907 556,189.5C 565.261,194.435 574.261,199.768 583,205.5C 581.488,209.486 579.155,213.152 576,216.5C 574,215.167 572,213.833 570,212.5C 569.571,210.331 570.071,208.331 571.5,206.5C 554.511,195.36 536.677,185.693 518,177.5C 516.667,180.167 515.333,182.833 514,185.5C 511.411,184.792 509.245,183.459 507.5,181.5C 509.37,177.221 511.036,172.888 512.5,168.5 Z"/></g>
<g><path style="opacity:0.676" fill="#fefffe" d="M 448.5,176.5 C 450.806,176.993 453.139,177.326 455.5,177.5C 455.5,183.833 455.5,190.167 455.5,196.5C 453.167,196.5 450.833,196.5 448.5,196.5C 448.5,189.833 448.5,183.167 448.5,176.5 Z"/></g>
<g><path style="opacity:0.673" fill="#fefffe" d="M 460.5,178.5 C 462.833,178.5 465.167,178.5 467.5,178.5C 467.167,184.5 466.833,190.5 466.5,196.5C 464.208,196.756 462.041,196.423 460,195.5C 459.905,189.843 460.072,184.176 460.5,178.5 Z"/></g>
<g><path style="opacity:0.803" fill="#fefffe" d="M 218.5,180.5 C 219.5,180.5 220.5,180.5 221.5,180.5C 221.777,183.448 221.444,186.281 220.5,189C 209.771,191.077 201.937,196.911 197,206.5C 195.445,215.895 198.278,223.728 205.5,230C 213.762,235.599 222.095,235.599 230.5,230C 233.939,227.861 237.106,225.361 240,222.5C 245.374,225.98 245.54,229.48 240.5,233C 232.715,239.142 223.882,242.642 214,243.5C 196.971,241.303 187.471,231.637 185.5,214.5C 186.859,202.306 192.859,193.139 203.5,187C 208.367,184.226 213.367,182.059 218.5,180.5 Z"/></g>
<g><path style="opacity:0.739" fill="#fefffe" d="M 476.5,181.5 C 480.061,183.048 483.394,185.048 486.5,187.5C 480.139,192.531 474.806,198.531 470.5,205.5C 473.917,206.639 477.25,207.972 480.5,209.5C 479.877,211.711 478.877,213.711 477.5,215.5C 465.194,210.756 452.527,207.256 439.5,205C 440.249,203.266 440.749,201.433 441,199.5C 441.561,198.978 442.228,198.645 443,198.5C 449.704,200.886 456.537,202.386 463.5,203C 468.881,196.456 473.214,189.289 476.5,181.5 Z"/></g>
<g><path style="opacity:0.735" fill="#fefffe" d="M 373.5,183.5 C 382.077,186.788 390.41,190.622 398.5,195C 399.451,195.718 399.617,196.551 399,197.5C 396.815,198.928 394.815,200.595 393,202.5C 385.379,197.607 377.546,193.107 369.5,189C 370.965,187.226 372.298,185.392 373.5,183.5 Z"/></g>
<g><path style="opacity:0.591" fill="#fefffe" d="M 412.5,183.5 C 419.174,183.713 425.841,184.046 432.5,184.5C 432.167,186.5 431.833,188.5 431.5,190.5C 425.167,190.5 418.833,190.5 412.5,190.5C 412.5,188.167 412.5,185.833 412.5,183.5 Z"/></g>
<g><path style="opacity:0.739" fill="#fefffe" d="M 517.5,183.5 C 530.09,189.128 542.423,195.295 554.5,202C 558.874,204.181 562.874,206.848 566.5,210C 565.711,211.626 564.711,213.126 563.5,214.5C 561.5,213.167 559.5,211.833 557.5,210.5C 557.167,210.833 556.833,211.167 556.5,211.5C 559.107,216.38 561.44,221.38 563.5,226.5C 561.392,227.355 559.226,228.022 557,228.5C 555.23,226.383 553.73,224.049 552.5,221.5C 547.921,219.294 543.421,216.961 539,214.5C 537.833,216.167 536.667,217.833 535.5,219.5C 542.134,224.156 549.134,228.322 556.5,232C 558.56,234.034 558.226,236.034 555.5,238C 547.853,234.079 540.353,229.579 533,224.5C 532.086,226.664 530.919,228.664 529.5,230.5C 539.167,236.333 548.833,242.167 558.5,248C 557.289,250.9 555.289,252.566 552.5,253C 533.462,238.978 512.795,227.811 490.5,219.5C 491.023,217.067 492.19,215.067 494,213.5C 503.348,217.424 512.515,221.757 521.5,226.5C 523.188,224.971 524.521,223.137 525.5,221C 518.184,216.841 510.517,213.508 502.5,211C 501.306,208.556 501.806,206.389 504,204.5C 511.213,207.856 518.379,211.356 525.5,215C 526.635,215.749 527.635,215.583 528.5,214.5C 529.04,213.252 529.707,212.085 530.5,211C 523.183,207.225 515.516,204.225 507.5,202C 508.187,199.768 508.521,197.602 508.5,195.5C 515.56,198.135 522.56,197.968 529.5,195C 524.671,193.116 520.005,190.949 515.5,188.5C 516.456,186.925 517.123,185.258 517.5,183.5 Z M 537.5,200.5 C 542.478,201.82 547.145,203.987 551.5,207C 549.833,207.333 548.167,207.667 546.5,208C 547.765,209.337 548.265,210.837 548,212.5C 541.242,209.205 534.409,206.038 527.5,203C 530.991,202.262 534.325,201.429 537.5,200.5 Z"/></g>
<g><path style="opacity:0.923" fill="#fefefe" d="M 374.5,217.5 C 377.32,217.248 379.986,217.748 382.5,219C 434.702,249.6 487.035,279.933 539.5,310C 540.517,311.049 540.684,312.216 540,313.5C 498.179,337.656 456.345,361.656 414.5,385.5C 403.662,380.162 393.162,374.162 383,367.5C 383.195,365.255 384.362,363.422 386.5,362C 415.483,346.494 443.817,329.994 471.5,312.5C 470.352,310.851 469.019,309.351 467.5,308C 438.801,291.653 410.135,275.319 381.5,259C 378.5,258.333 375.5,258.333 372.5,259C 343.337,275.414 314.337,292.081 285.5,309C 283.833,309.667 282.167,309.667 280.5,309C 272.328,304.08 263.995,299.413 255.5,295C 250.198,293.137 249.531,290.47 253.5,287C 294.153,264.091 334.486,240.925 374.5,217.5 Z"/></g>
<g><path style="opacity:0.928" fill="#fefefe" d="M 226.5,302.5 C 230.131,302.16 233.464,302.994 236.5,305C 288.316,335.32 340.149,365.487 392,395.5C 392.711,397.367 392.211,398.867 390.5,400C 380.731,405.634 370.898,411.134 361,416.5C 323.435,395.3 285.935,373.967 248.5,352.5C 247.833,352.833 247.167,353.167 246.5,353.5C 245.333,396.496 245.167,439.496 246,482.5C 246.93,484.552 248.43,486.052 250.5,487C 282.408,504.535 313.908,522.702 345,541.5C 345.198,553.033 345.698,564.533 346.5,576C 346.275,577.621 345.442,578.788 344,579.5C 310.972,561.401 278.138,542.901 245.5,524C 236.326,517.577 226.66,511.91 216.5,507C 214.43,506.052 212.93,504.552 212,502.5C 211.333,439.167 211.333,375.833 212,312.5C 216.639,308.774 221.472,305.44 226.5,302.5 Z"/></g>
<g><path style="opacity:0.921" fill="#fefefe" d="M 539.5,340.5 C 543.412,340.68 545.079,342.847 544.5,347C 544.4,349.302 543.733,351.302 542.5,353C 544.847,354.086 544.847,355.419 542.5,357C 545.068,360.789 545.068,364.456 542.5,368C 543.516,368.519 544.182,369.353 544.5,370.5C 543.246,373.782 541.912,376.948 540.5,380C 492.219,407.721 444.053,435.554 396,463.5C 394.366,492.452 394.033,521.452 395,550.5C 395.519,551.516 396.353,552.182 397.5,552.5C 444.788,526.189 491.788,499.355 538.5,472C 540.809,471.244 542.809,471.744 544.5,473.5C 543.833,474.167 543.167,474.833 542.5,475.5C 545.096,478.618 545.096,481.785 542.5,485C 543.643,487.342 544.31,489.842 544.5,492.5C 543.4,498.13 542.567,503.797 542,509.5C 489.713,540.392 437.213,570.892 384.5,601C 382.833,601.667 381.167,601.667 379.5,601C 374.367,598.265 369.367,595.265 364.5,592C 362.197,590.865 360.864,589.032 360.5,586.5C 361.175,542.904 361.175,498.904 360.5,454.5C 360.367,450.664 361.033,446.998 362.5,443.5C 421.759,409.379 480.759,375.045 539.5,340.5 Z"/></g>
</svg>
